<?xml version="1.0" encoding="UTF-8" standalone="no"?><!DOCTYPE svg PUBLIC "-//W3C//DTD SVG 1.1//EN" "http://www.w3.org/Graphics/SVG/1.1/DTD/svg11.dtd"><svg width="100%" height="100%" viewBox="0 0 872 657" version="1.1" xmlns="http://www.w3.org/2000/svg" xmlns:xlink="http://www.w3.org/1999/xlink" xml:space="preserve" xmlns:serif="http://www.serif.com/" style="fill-rule:evenodd;clip-rule:evenodd;stroke-linecap:round;stroke-linejoin:round;stroke-miterlimit:1.5;"><g><g><path d="M329.381,640.183c-17.17,-17.072 -23.655,-15.507 -43.899,-59.084c-21.03,-45.268 -38.677,-104.459 -125.351,-130.434c-41.89,-12.554 -103.112,-3.726 -155.686,32.176c24.127,12.588 30.808,21.625 48.119,34.41c15.066,11.128 35.811,35.047 46.896,50.244c22.981,31.506 33.382,51.217 62.655,68.857c24.677,14.871 64.368,17.017 95.604,14.779c24.925,-1.786 45.458,-6.325 71.662,-10.948Z" style="fill:none;stroke:#000;stroke-opacity:0.33;stroke-width:8.77px;"/></g><g><g><path d="M324.431,559.323c0,-0 15.834,-70.682 8.63,-133.78c-6.96,-60.965 -33.381,-109.969 -61.098,-140.419c-40.003,-43.948 -110.026,-79.261 -199.498,-79.992c16.432,32.426 25.341,49.676 33.906,76.904c7.454,23.696 7.712,62.475 7.172,87.309c-1.119,51.484 2.446,83.26 20.348,125.1c11.098,25.938 36.124,53.511 60.309,73.525c8.703,7.203 17.298,13.427 25.095,18.243c29.464,18.2 53.848,30.355 89.718,45.198" style="fill:#fff;fill-opacity:0.19;stroke:#000;stroke-opacity:0.38;stroke-width:10.1px;"/></g><g><path d="M340.194,602.299c-38.27,-86.778 -104.993,-145.499 -125.74,-197.28c-20.803,-51.92 -19.809,-105.508 -8.268,-147.572c16.658,-60.712 37.726,-100.994 105.217,-190.61c19.613,50.153 41.862,86.004 57.889,115.057c13.614,24.679 32.612,53.388 45.06,80.666c34.912,76.508 41.338,161.879 5.49,224.753c-16.859,29.571 -46.306,65.297 -58.56,78.639" style="fill:#fff;fill-opacity:0.39;stroke:#000;stroke-opacity:0.51;stroke-width:13.4px;"/></g><g><path d="M338.146,595.024c3.708,-37.541 15.272,-42.594 -8.998,-113.856c-22.997,-67.526 -31.298,-78.342 -30.014,-140.179c1.451,-69.819 24.41,-122.795 55.646,-163.09c45.945,-59.27 83.045,-91.439 200.033,-170.142c-18.418,63.463 6.669,130.034 17.384,174.956c6.848,28.708 40.02,120.358 -6.345,221.878c-23.766,52.04 -62.374,96.442 -113.85,128.903c-41.421,26.12 -78.475,42.391 -78.475,42.391" style="fill:#fff;fill-opacity:0.55;stroke:#000;stroke-opacity:0.68;stroke-width:15px;"/></g><g><path d="M359.73,531.705c-8.319,5.07 31.612,-41.417 35.939,-62.987c5.774,-28.787 10.871,-87.908 16.338,-147.332c4.048,-44 35.655,-89.841 45.339,-103.658c28.612,-40.823 95.576,-84.897 165.31,-96.647c138.031,-23.258 232.66,24.84 232.66,24.84c-0,-0 -53.697,50.316 -71.939,81.798c-20.676,35.681 -34.777,90.251 -52.114,132.287c-31.779,77.055 -86.967,117.768 -156.829,140.823c-65.363,21.57 -206.386,25.806 -214.704,30.876Z" style="fill:#fff;fill-opacity:0.87;"/><path d="M862.481,143.323c-35.551,29.602 -48.563,46.79 -71.072,74.036c-19.588,23.711 -34.892,67.966 -43.704,96.629c-18.267,59.422 -35.512,94.154 -76.752,133.857c-34.765,33.47 -106.836,58.641 -155.191,66.015c-48.354,7.373 -57.021,10.144 -110.251,13.02" style="fill:none;stroke:#000;stroke-width:15.11px;"/><path d="M862.481,143.323c-0,-0 -172.653,34.307 -232.368,84.815c-46.431,39.273 -61.967,65.909 -102.975,137.819c-35.415,62.1 -38.029,62.503 -105.167,118.322c-67.137,55.82 -68.116,51.8 -68.116,51.8c0,0 50.677,-45.628 53.464,-123.39c2.641,-73.685 -1.793,-87.424 24.127,-145.53c29.264,-65.606 71.03,-101.998 121.652,-124.186c73.063,-32.024 183.56,-39.663 309.383,0.35Z" style="fill:#fff;fill-opacity:0.55;stroke:#000;stroke-width:18px;"/></g></g></g></svg>