<?xml version="1.0" encoding="UTF-8" standalone="no"?><!DOCTYPE svg PUBLIC "-//W3C//DTD SVG 1.1//EN" "http://www.w3.org/Graphics/SVG/1.1/DTD/svg11.dtd"><svg width="100%" height="100%" viewBox="0 0 594 633" version="1.1" xmlns="http://www.w3.org/2000/svg" xmlns:xlink="http://www.w3.org/1999/xlink" xml:space="preserve" xmlns:serif="http://www.serif.com/" style="fill-rule:evenodd;clip-rule:evenodd;stroke-linecap:round;stroke-linejoin:round;stroke-miterlimit:1.5;"><g><g opacity="0.2"><g><path d="M166.106,297.109c36.65,-7.605 77.483,-7.325 113.263,4.954c35.893,12.318 79.636,36.888 102.094,68.953c53.769,76.768 33.795,126.101 21.459,155.155c-10.582,24.924 -27.196,56.888 -63.416,76.064c-49.717,26.322 -93.743,31.453 -151.777,16.667c-54.271,-13.827 -78.391,-29.706 -103.396,-59.652c-25.567,-30.619 -32.851,-52.011 -41.557,-95.138c-7.082,-35.081 8.671,-85.475 29.226,-113.308c20.555,-27.834 54.278,-45.43 94.104,-53.695Z" style="fill:#fff;stroke:#000;stroke-width:11.76px;"/></g></g><g opacity="0.26"><path d="M165.707,172.708c44.819,-8.076 94.444,-6.454 137.5,9.571c43.193,16.076 95.493,47.268 121.654,86.885c62.633,94.848 36.603,154.086 20.577,188.957c-13.748,29.913 -35.078,68.179 -79.785,90.311c-61.368,30.379 -115.066,35.222 -185.084,15.455c-65.479,-18.485 -94.235,-38.512 -123.567,-75.638c-29.991,-37.96 -38.085,-64.149 -47.137,-116.758c-7.363,-42.793 13.573,-103.451 39.547,-136.582c25.974,-33.13 67.591,-53.424 116.295,-62.201Z" style="fill:#fff;stroke:#000;stroke-width:16.74px;"/></g><g opacity="0.39"><path d="M344.84,120.038c48.25,12.859 97.025,37.466 132.912,73.159c36.002,35.806 74.435,90.669 83.095,141.677c20.732,122.122 -31.289,168.179 -62.613,194.965c-26.87,22.978 -64.977,50.636 -119.299,51.62c-74.565,1.351 -130.246,-18.8 -191.375,-70.669c-57.167,-48.506 -77.033,-81.495 -89.95,-131.529c-13.208,-51.158 -9.758,-80.611 4.36,-136.433c11.484,-45.408 59.051,-95.221 99.529,-115.686c40.478,-20.465 90.909,-21.079 143.341,-7.104Z" style="fill:#fff;stroke:#000;stroke-width:18.89px;"/></g><g><g><path d="M249.113,13.829c51.188,-8.131 107.615,-5.077 156.226,14.256c48.764,19.393 107.533,56.258 136.36,102.104c69.015,109.765 37.992,176.739 18.929,216.146c-16.353,33.805 -41.53,76.959 -92.925,101.134c-70.548,33.183 -131.762,37.408 -210.962,13.152c-74.066,-22.684 -106.31,-46.237 -138.804,-89.317c-33.224,-44.048 -41.812,-74.133 -50.864,-134.392c-2.698,-17.966 -1.014,-38.579 3.697,-59.315c8.141,-35.839 25.323,-72.047 44.542,-95.6c30.34,-37.181 78.175,-59.332 133.801,-68.168Zm-21.538,221.882c37.721,13.004 51.384,13.06 107.683,38.79c45.913,20.982 75.932,30.02 77.017,63.835c1.084,33.815 -49.842,62.922 -79.064,68.127c-29.223,5.204 -70.113,4.423 -102.545,-25.531c-32.431,-29.954 -53.383,-83.125 -48.67,-120.613c4.415,-35.125 18.911,-33.802 45.579,-24.608Z" style="fill:#fff;fill-opacity:0.8;"/><path d="M227.575,235.711c37.721,13.004 51.384,13.06 107.683,38.79c45.913,20.982 75.932,30.02 77.017,63.835c1.084,33.815 -49.842,62.922 -79.064,68.127c-29.223,5.204 -70.113,4.423 -102.545,-25.531c-32.431,-29.954 -53.383,-83.125 -48.67,-120.613c4.415,-35.125 18.911,-33.802 45.579,-24.608Z" style="fill:none;stroke:#000;stroke-width:17.01px;"/><path d="M248.586,13.941c51.286,-8.152 107.815,-5.119 156.507,14.196c48.846,19.376 107.708,56.221 136.57,102.06c69.099,109.746 37.993,176.738 18.88,216.156c-16.396,33.814 -41.637,76.982 -93.136,101.179c-70.689,33.213 -132.018,37.463 -211.354,13.236c-74.192,-22.657 -106.486,-46.199 -139.023,-89.271c-33.267,-44.038 -41.86,-74.122 -50.904,-134.383c-2.697,-17.966 -1.001,-38.581 3.726,-59.322c8.171,-35.845 25.398,-72.063 44.662,-95.625c30.41,-37.195 78.341,-59.367 134.072,-68.226Z" style="fill:none;stroke:#000;stroke-width:19.41px;"/><path d="M293.872,75.953c24.443,14.765 30.387,25.726 38.159,45.34c9.239,23.317 5.659,58.997 -19.917,72.613c-25.835,13.754 -59.673,19.732 -84.509,3.838c-24.837,-15.894 -40.411,-35.125 -45.102,-58.452c-4.832,-24.028 1.622,-58.183 31.484,-70.01c33.164,-13.135 54.706,-8.539 79.885,6.671Z" style="fill:#fff;stroke:#000;stroke-width:16.37px;"/><path d="M487.829,145.087c17.251,8.181 33.962,23.573 47.503,49.808c13.726,26.594 8.058,44.626 -16.058,70.449c-17.158,18.373 -57.155,25.604 -79.282,15.077c-34.139,-16.242 -47.438,-39.312 -51.327,-64.403c-5.513,-35.566 1.468,-44.707 20.496,-60.113c19.028,-15.406 51.128,-23.878 78.668,-10.818Z" style="fill:#fff;stroke:#000;stroke-width:15.77px;"/><path d="M299.05,144.911c3.413,-17.513 -7.811,-44.201 -18.537,-51.603c-11.398,-7.865 -41.835,1.427 -51.737,15.743c-5.605,8.104 0.078,38.355 16.528,50.131c12.738,9.118 50.967,-0.005 53.746,-14.271Z"/><path d="M461.603,173.854c-19.148,11.712 -41.424,19.912 -27.512,44.607c14.562,25.847 22.381,37.206 48.274,22.839c17.199,-9.543 31.117,-19.448 20.157,-44.809c-10.871,-25.155 -27.466,-30.866 -40.919,-22.637Z"/></g></g></g></svg>